<?xml version="1.0" encoding="UTF-8"?>
<svg version="1.1" xmlns="http://www.w3.org/2000/svg" width="150" height="150">
<path d="M0 0 C49.5 0 99 0 150 0 C150 49.5 150 99 150 150 C100.5 150 51 150 0 150 C0 100.5 0 51 0 0 Z " fill="#FBFBFC" transform="translate(0,0)"/>
<path d="M0 0 C1.56935594 3.13871188 1.35201103 5.53855822 1 9 C-1.125 11.9375 -1.125 11.9375 -4 14 C-8.45709688 14.42739285 -11.29287288 13.69568278 -15.25 11.6875 C-31.19363472 4.01978466 -51.9998429 1.37089965 -69 7.0625 C-74.73519147 9.56551143 -79.47426335 12.69310941 -84 17 C-84.69738281 17.63421875 -85.39476562 18.2684375 -86.11328125 18.921875 C-96.1399794 28.96745582 -99.87622033 43.79945095 -100.375 57.625 C-100.12425526 72.04282242 -95.63240781 87.04203148 -86 98 C-79.31716367 103.81634216 -72.49226653 107.57728132 -64 110 C-63.28585938 110.22429687 -62.57171875 110.44859375 -61.8359375 110.6796875 C-45.36407069 115.18323161 -26.5003554 110.96314724 -11.625 103.25 C-8.70282746 101.85848927 -7.18398589 101.42851535 -4 102 C-1.1875 103.5 -1.1875 103.5 1 106 C1.66538147 108.79919103 1.60443149 111.19288068 1 114 C-4.96622912 123.07904431 -20.80700539 126.91371161 -30.70703125 129.125 C-51.1914164 133.00419291 -72.33080059 130.14882563 -90 119 C-93.65222508 116.25963765 -96.85701462 113.30625735 -100 110 C-100.64324219 109.34128906 -101.28648438 108.68257813 -101.94921875 108.00390625 C-109.87588453 99.45823838 -114.13585407 90.23526334 -117 79 C-117.26816528 78.02232666 -117.26816528 78.02232666 -117.54174805 77.02490234 C-119.171891 70.59582183 -119.34698675 64.36096079 -119.3125 57.75 C-119.30758545 56.64116455 -119.3026709 55.5323291 -119.29760742 54.38989258 C-119.18470025 46.50781415 -118.61313322 39.4902766 -116 32 C-115.67128906 31.00484375 -115.34257813 30.0096875 -115.00390625 28.984375 C-109.06446384 12.95404601 -96.42705083 -0.6844105 -81 -8 C-55.02336367 -18.43048455 -23.26669593 -16.03782436 0 0 Z " fill="#8E56FB" transform="translate(130,17)"/>
<path d="M0 0 C2.25252841 1.64837344 4.27820709 3.36389079 6.296875 5.2890625 C7.13798828 6.08763672 7.13798828 6.08763672 7.99609375 6.90234375 C17.7388951 17.18504845 19.79600665 31.11888824 19.54296875 44.73828125 C18.60775121 58.23213433 13.91153965 69.86246655 3.98828125 79.21484375 C-8.29598241 88.68210646 -22.46504816 91.95331177 -37.703125 90.2890625 C-46.38728768 88.64388441 -56.31824388 85.67394362 -62.703125 79.2890625 C-62.99356998 76.5298352 -63.0221715 74.85208574 -61.640625 72.4140625 C-59.21905361 71.00798879 -57.57812518 71.18551769 -54.87109375 71.69921875 C-51.24715299 72.68519182 -47.75691262 74.00387122 -44.25390625 75.3515625 C-34.44134468 78.95801698 -22.2423374 78.61612792 -12.703125 74.2890625 C-3.70891489 69.71871469 1.27631956 63.01266388 4.68164062 53.57763672 C7.25269588 44.01371927 6.98933793 31.36478662 2.796875 22.3515625 C-2.12581243 14.27509659 -9.5158309 8.25123691 -18.66723633 5.72338867 C-22.35189373 4.93732253 -26.00844578 4.86341118 -29.765625 4.8515625 C-31.0038501 4.84684937 -31.0038501 4.84684937 -32.26708984 4.84204102 C-39.19481836 4.97529232 -49.52427033 6.11020783 -54.703125 11.2890625 C-57.51263986 11.58480091 -59.11941476 11.67149335 -61.515625 10.1015625 C-63.11504105 7.66034853 -63.00000318 6.16616135 -62.703125 3.2890625 C-49.29055585 -14.53722748 -16.1106482 -10.19720219 0 0 Z " fill="#611FE6" transform="translate(112.703125,33.7109375)"/>
<path d="M0 0 C5.29744636 2.08034359 9.89798228 5.68906893 12.4140625 10.8828125 C14.01465325 16.6662804 13.95830798 23.30167098 11.8125 28.9375 C8.87487871 33.901067 5.58159868 37.40431622 0.0859375 39.4921875 C-5.59544848 40.87529645 -11.6762383 41.09587716 -16.9375 38.3125 C-21.55576691 34.82523723 -24.15528621 31.46319085 -26 26 C-26.72029747 19.13378779 -26.68078884 12.9367562 -23 7 C-15.93140566 -0.19949424 -10.08372971 -1.12885672 0 0 Z " fill="#66E0E5" transform="translate(92,56)"/>
<path d="M0 0 C1.36495746 0.95638324 2.71074563 1.94377987 4 3 C3.67 4.65 3.34 6.3 3 8 C-0.52991375 8.2521367 -2.56932315 8.23547799 -5.71484375 6.515625 C-9.5410255 4.7503949 -12.80445761 4.50172711 -16.9375 4.5625 C-18.00254761 4.57277222 -18.00254761 4.57277222 -19.08911133 4.58325195 C-26.38931228 4.80835343 -29.38398386 6.73278602 -34.8125 11.4375 C-40.14131284 17.67982361 -39.74306741 25.26390605 -39.22949219 33.05859375 C-38.5647044 38.68241558 -36.26516268 42.89320675 -32.15625 46.71484375 C-25.70325288 51.06098547 -18.50389054 50.83280172 -11 50 C-8.51767138 49.37318531 -6.22019557 48.61233984 -3.84375 47.66796875 C-1.51179536 46.82312925 0.54342771 46.7622672 3 47 C3.495 49.475 3.495 49.475 4 52 C-4.85535316 58.58474979 -13.54594046 59.9833478 -24.41796875 58.71875 C-31.49022608 57.45280376 -36.70103723 54.29896277 -41.75 49.25 C-47.91260074 40.3484656 -49.90929871 31.74271478 -49 21 C-47.02544302 12.01933423 -42.92648222 5.41852481 -35.37109375 0.17578125 C-23.87008053 -6.39403855 -11.82487578 -5.47312362 0 0 Z " fill="#CB75E2" transform="translate(102,48)"/>
<path d="M0 0 C3.06310635 2.56446113 5.33931145 4.54387612 6.15625 8.546875 C6.23806716 14.96952239 5.0690627 19.42183174 0.6875 24.25 C-3.14102607 26.66801647 -6.86006928 26.79678974 -11.3125 26.25 C-15.07435344 24.09423467 -17.7374206 21.29917673 -19.3125 17.25 C-19.95016714 11.85948829 -20.25108304 6.92604115 -17.5625 2.125 C-12.04337721 -2.47426899 -6.45645305 -3.41095633 0 0 Z " fill="#F9FDFD" transform="translate(92.3125,63.75)"/>
<path d="M0 0 C0.74958984 0.00451172 1.49917969 0.00902344 2.27148438 0.01367188 C4.11852383 0.02543646 5.96552213 0.04337135 7.8125 0.0625 C7.8125 0.3925 7.8125 0.7225 7.8125 1.0625 C5.5025 1.3925 3.1925 1.7225 0.8125 2.0625 C2.1325 2.7225 3.4525 3.3825 4.8125 4.0625 C4.01585938 4.08828125 3.21921875 4.1140625 2.3984375 4.140625 C-5.51709919 4.56432769 -9.97400556 5.58845195 -15.5 11.5625 C-19.19968368 17.04351286 -18.77772365 23.66841045 -18.1875 30.0625 C-16.59334808 35.43409886 -13.94684805 39.01163587 -9.1875 42.0625 C-1.39844429 44.6588519 6.40541051 43.13507046 13.8125 40.0625 C14.3075 42.0425 14.3075 42.0425 14.8125 44.0625 C6.58793303 47.46576909 -2.22273384 48.91097847 -10.91015625 46.21875 C-16.47602358 43.4683381 -19.57727965 39.63252379 -22.1875 34.0625 C-24.42169453 27.35991641 -24.56207121 16.93377767 -21.6875 10.4375 C-16.58282701 2.18586015 -9.17981397 -0.10422496 0 0 Z " fill="#F1F3F8" transform="translate(85.1875,51.9375)"/>
<path d="M0 0 C4.21878192 -0.19622241 7.17010894 0.19769832 11 2 C11 2.33 11 2.66 11 3 C7.04 3 3.08 3 -1 3 C-0.67 2.01 -0.34 1.02 0 0 Z " fill="#E5F8F7" transform="translate(79,53)"/>
<path d="M0 0 C0.66 0.33 1.32 0.66 2 1 C1.360625 1.598125 0.72125 2.19625 0.0625 2.8125 C-2.87139517 7.34670163 -2.81430312 11.69835408 -3 17 C-3.33 17 -3.66 17 -4 17 C-4.63019694 6.02407002 -4.63019694 6.02407002 -2 1.75 C-1.01 0.88375 -1.01 0.88375 0 0 Z " fill="#DCF6F6" transform="translate(77,64)"/>
<path d="M0 0 C0.99 0.33 1.98 0.66 3 1 C2.34 2.32 1.68 3.64 1 5 C-1.97 5 -4.94 5 -8 5 C-7.01 4.34 -6.02 3.68 -5 3 C-3.7625 2.1646875 -3.7625 2.1646875 -2.5 1.3125 C-1.675 0.879375 -0.85 0.44625 0 0 Z " fill="#6C34DC" transform="translate(105,105)"/>
<path d="M0 0 C6.6 0.6 6.6 0.6 9 3 C8.01 3.33 7.02 3.66 6 4 C6 3.34 6 2.68 6 2 C5.21625 2.20625 4.4325 2.4125 3.625 2.625 C2.75875 2.74875 1.8925 2.8725 1 3 C0.34 2.34 -0.32 1.68 -1 1 C-0.67 0.67 -0.34 0.34 0 0 Z " fill="#662BDB" transform="translate(53,105)"/>
<path d="M0 0 C0.33 0 0.66 0 1 0 C1.33 3.96 1.66 7.92 2 12 C0.68 12.33 -0.64 12.66 -2 13 C-1.34 8.71 -0.68 4.42 0 0 Z " fill="#E1F5F6" transform="translate(65,73)"/>
<path d="M0 0 C0.598125 0.226875 1.19625 0.45375 1.8125 0.6875 C1.008125 0.914375 0.20375 1.14125 -0.625 1.375 C-1.470625 1.808125 -2.31625 2.24125 -3.1875 2.6875 C-4.08136164 5.23525306 -4.08136164 5.23525306 -4.1875 7.6875 C-4.5175 7.6875 -4.8475 7.6875 -5.1875 7.6875 C-5.41803497 4.84423536 -5.54653101 3.22604651 -3.9375 0.8125 C-2.1875 -0.3125 -2.1875 -0.3125 0 0 Z " fill="#733DDC" transform="translate(55.1875,34.3125)"/>
</svg>
